<svg fill="#000000" xmlns="http://www.w3.org/2000/svg" viewBox="0 0 336 348"><path d="M116.918 260.412H233.837V336.522C233.837 342.424 229.052 347.209 223.15 347.209H10.6865C4.78457 347.209 0 342.424 0 336.522V265.787C8.89288e-06 262.405 1.60041 259.223 4.31543 257.207L116.911 173.601H10.6865C4.78464 173.601 0.000113152 168.816 0 162.914V97.4893C8.81034e-05 91.5874 4.78462 86.8027 10.6865 86.8027H116.918V260.412ZM324.672 0C330.574 0.000133336 335.358 4.78465 335.358 10.6865V249.725C335.358 255.626 330.574 260.411 324.672 260.411H233.834V86.7969H116.916V10.6865C116.916 4.7847 121.7 0.000223591 127.602 0H324.672Z"/></svg>